<svg width="64" height="64" viewBox="0 0 64 64" fill="none" xmlns="http://www.w3.org/2000/svg">
    <path
        d="M45.5137 22.4959C44.549 22.317 43.6219 22.9529 43.4425 23.9174L43.2007 25.2176L37.7423 29.1302L34.8258 22.8968V21.3344C34.8258 20.3534 34.0305 19.5581 33.0495 19.5581C32.0685 19.5581 31.2732 20.3534 31.2732 21.3344V22.8968L28.3566 29.1303L22.9006 25.2193L22.648 23.8613C22.4686 22.8967 21.5417 22.2606 20.5768 22.4398C19.6123 22.6192 18.9759 23.5464 19.1553 24.5109L19.5385 26.5716L21.4517 36.8581C20.9314 37.1679 20.5818 37.7343 20.5818 38.3838C20.5818 39.3648 21.3771 40.1602 22.3581 40.1602H43.7408C44.7218 40.1602 45.5171 39.3648 45.5171 38.3838C45.5171 37.7343 45.1674 37.1679 44.6471 36.8581L46.5416 26.6724C46.5448 26.6574 46.5491 26.643 46.552 26.6278L46.9352 24.5672C47.1147 23.6025 46.4782 22.6753 45.5137 22.4959Z"
        fill="#2A99F7" />
    <path
        d="M2.7443 25.1222C2.75659 24.9357 2.82881 24.7582 2.95019 24.6162C3.07157 24.4741 3.23562 24.375 3.41788 24.3338C3.52991 24.3089 4.55176 24.0908 5.93078 24.0908C6.00964 24.0908 6.08993 24.0915 6.17082 24.093C8.25124 24.1324 9.98824 24.698 11.1941 25.7284C11.2781 25.8005 11.3599 25.8752 11.4394 25.9522C11.7934 24.1725 12.3752 22.4258 13.1838 20.7501C11.4659 19.819 10.2425 18.6014 9.63937 17.2148C9.00688 15.7602 8.97408 13.9338 9.54487 11.9328C9.96218 10.4697 10.5554 9.41496 10.5805 9.37055C10.6557 9.23795 10.7646 9.12762 10.8963 9.05078C11.028 8.97394 11.1776 8.93334 11.3301 8.93311C11.398 8.93317 11.4657 8.94124 11.5317 8.95714C11.5811 8.96899 12.7557 9.25379 14.1115 9.94667C15.9644 10.8936 17.2782 12.1629 17.9108 13.6174C18.5433 15.0719 18.5761 16.8985 18.0053 18.8993C17.5986 20.3252 17.0265 21.3606 16.9745 21.4534C16.9636 21.4754 16.9544 21.4979 16.9425 21.5196C14.2615 26.4226 14.0003 32.1696 16.2261 37.287C18.6055 42.7583 23.5333 46.6772 29.4079 47.7699C30.4116 47.9566 31.0738 48.9216 30.8872 49.9253C30.8866 49.9287 30.8855 49.9319 30.8848 49.9353C30.835 50.4121 30.7117 51.2757 30.4168 52.2713C29.8258 54.2663 28.8188 55.7905 27.5052 56.6793C26.4296 57.4069 25.004 57.7914 23.383 57.7914C23.0314 57.7909 22.6801 57.7741 22.3301 57.7409C20.8422 57.6015 19.7419 57.2343 19.6215 57.193C19.2602 57.0688 19.0213 56.7155 19.0403 56.3346C19.0469 56.207 19.1161 55.0468 19.5402 53.6161C20.1312 51.621 21.1382 50.0967 22.4519 49.2081L22.4588 49.2037C20.8679 48.3516 19.3899 47.3035 18.0596 46.0839C17.6556 46.3503 17.2375 46.5946 16.807 46.8158C15.4291 47.5218 14.0971 47.8799 12.8483 47.8799C12.4861 47.8799 12.1313 47.8486 11.791 47.7867L11.7899 47.7864C11.7289 47.7754 11.668 47.7632 11.6074 47.75C10.0576 47.4121 8.55712 46.3704 7.2681 44.737C6.32476 43.5419 5.81685 42.4448 5.79566 42.3985C5.63626 42.0513 5.72697 41.6345 6.01616 41.3853C6.11279 41.3021 6.99905 40.5525 8.32833 39.8712C9.70639 39.165 11.0383 38.8071 12.2871 38.8071C12.484 38.8071 12.6782 38.8174 12.8694 38.8357C12.8585 38.8108 12.8467 38.7865 12.8358 38.7616C12.1981 37.2966 11.7232 35.7662 11.4194 34.1976C11.066 34.2195 10.712 34.2273 10.3581 34.2211C8.27776 34.1817 6.54064 33.6161 5.33488 32.5858C4.12888 31.5553 3.29922 29.9277 2.93579 27.879C2.67005 26.3808 2.74122 25.1731 2.7443 25.1222ZM63.3541 25.1222C63.3418 24.9357 63.2696 24.7582 63.1482 24.6162C63.0268 24.4741 62.8627 24.375 62.6805 24.3338C62.5685 24.3089 61.5466 24.0908 60.1675 24.0908C60.0886 24.0908 60.0084 24.0915 59.9274 24.093C57.847 24.1324 56.11 24.698 54.9041 25.7284C54.8202 25.8005 54.7384 25.8752 54.6589 25.9522C54.3048 24.1725 53.723 22.4258 52.9144 20.7501C54.6324 19.819 55.8558 18.6014 56.4589 17.2148C57.0914 15.7602 57.1242 13.9338 56.5534 11.9328C56.1361 10.4697 55.5429 9.41496 55.5178 9.37055C55.4426 9.23795 55.3336 9.12762 55.202 9.05078C55.0703 8.97394 54.9206 8.93334 54.7682 8.93311C54.7003 8.93317 54.6326 8.94124 54.5665 8.95714C54.5171 8.96899 53.3425 9.25379 51.9867 9.94667C50.1339 10.8936 48.82 12.1629 48.1874 13.6174C47.5549 15.0719 47.5221 16.8985 48.0929 18.8993C48.4997 20.3252 49.0718 21.3606 49.1239 21.4534C49.1348 21.4754 49.1439 21.4979 49.1559 21.5196C51.8369 26.4226 52.0982 32.1696 49.8723 37.287C47.4928 42.7583 42.565 46.6772 36.6905 47.7699C35.6868 47.9566 35.0246 48.9216 35.2112 49.9253C35.2118 49.9287 35.2129 49.9319 35.2136 49.9353C35.2634 50.4121 35.3867 51.2757 35.6816 52.2713C36.2726 54.2663 37.2795 55.7905 38.5932 56.6793C39.6688 57.4069 41.0944 57.7914 42.7154 57.7914C43.067 57.7909 43.4183 57.7741 43.7683 57.7409C45.2561 57.6015 46.3565 57.2343 46.4768 57.193C46.8381 57.0688 47.0771 56.7155 47.058 56.3346C47.0515 56.207 46.9822 55.0468 46.5583 53.6161C45.9673 51.621 44.9603 50.0967 43.6466 49.2081L43.6397 49.2037C45.2306 48.3516 46.7086 47.3035 48.0389 46.0839C48.4429 46.3503 48.861 46.5946 49.2915 46.8158C50.6694 47.5218 52.0014 47.8799 53.2502 47.8799C53.6124 47.8799 53.9672 47.8486 54.3075 47.7867L54.3086 47.7864C54.3696 47.7754 54.4305 47.7632 54.4911 47.75C56.0409 47.4121 57.5414 46.3704 58.8304 44.737C59.7737 43.5419 60.2816 42.4448 60.3028 42.3985C60.4622 42.0513 60.3715 41.6345 60.0823 41.3853C59.9857 41.3021 59.0994 40.5525 57.7702 39.8712C56.3921 39.165 55.0602 38.8071 53.8113 38.8071C53.6145 38.8071 53.4203 38.8174 53.2291 38.8357C53.24 38.8108 53.2518 38.7865 53.2627 38.7616C53.9003 37.2966 54.3753 35.7662 54.6791 34.1976C55.0325 34.2195 55.3865 34.2273 55.7404 34.2211C57.8207 34.1817 59.5578 33.6161 60.7636 32.5858C61.9696 31.5553 62.7993 29.9277 63.1627 27.879C63.4283 26.3808 63.3571 25.1731 63.3541 25.1222Z"
        fill="#2A99F7" />
    <path
        d="M43.4912 19.607C42.5265 19.428 41.5994 20.064 41.42 21.0285L41.1782 22.3286L35.7198 26.2413L32.8033 20.0078V18.4455C32.8033 17.4645 32.008 16.6692 31.027 16.6692C30.046 16.6692 29.2507 17.4645 29.2507 18.4455V20.0078L26.3341 26.2414L20.8781 22.3304L20.6255 20.9724C20.4461 20.0078 19.5192 19.3717 18.5543 19.5508C17.5898 19.7303 16.9534 20.6575 17.1328 21.622L17.516 23.6827L19.4292 33.9692C18.9089 34.279 18.5593 34.8454 18.5593 35.4949C18.5593 36.4759 19.3546 37.2712 20.3356 37.2712H41.7183C42.6993 37.2712 43.4946 36.4759 43.4946 35.4949C43.4946 34.8454 43.1449 34.279 42.6246 33.9692L44.5191 23.7835C44.5223 23.7685 44.5267 23.7541 44.5295 23.7389L44.9127 21.6783C45.0923 20.7136 44.4557 19.7864 43.4912 19.607Z"
        fill="url(#paint0_linear_31897_76658)" />
    <path
        d="M0.721843 22.2333C0.734131 22.0468 0.806349 21.8693 0.927731 21.7272C1.04911 21.5852 1.21316 21.4861 1.39542 21.4448C1.50745 21.42 2.5293 21.2018 3.90831 21.2018C3.98718 21.2018 4.06747 21.2026 4.14835 21.2041C6.22877 21.2435 7.96577 21.8091 9.17166 22.8395C9.25564 22.9116 9.33742 22.9862 9.41691 23.0633C9.77098 21.2836 10.3528 19.5368 11.1614 17.8612C9.44343 16.93 8.22002 15.7124 7.61691 14.3258C6.98442 12.8713 6.95162 11.0449 7.52241 9.04391C7.93972 7.58082 8.53289 6.52604 8.558 6.48164C8.6332 6.34903 8.74217 6.2387 8.87383 6.16186C9.0055 6.08503 9.15516 6.04443 9.3076 6.04419C9.37554 6.04425 9.44323 6.05232 9.50927 6.06823C9.55865 6.08007 10.7333 6.36487 12.0891 7.05776C13.9419 8.00465 15.2558 9.274 15.8884 10.7285C16.5209 12.183 16.5537 14.0095 15.9829 16.0104C15.5761 17.4363 15.004 18.4716 14.952 18.5645C14.9411 18.5865 14.9319 18.609 14.92 18.6307C12.239 23.5337 11.9779 29.2806 14.2036 34.3981C16.583 39.8694 21.5109 43.7883 27.3854 44.881C28.3891 45.0677 29.0513 46.0327 28.8647 47.0363C28.8641 47.0398 28.8631 47.043 28.8623 47.0464C28.8125 47.5232 28.6892 48.3868 28.3943 49.3824C27.8033 51.3774 26.7964 52.9016 25.4827 53.7904C24.4071 54.5179 22.9816 54.9025 21.3605 54.9025C21.0089 54.902 20.6576 54.8852 20.3076 54.852C18.8198 54.7126 17.7194 54.3454 17.5991 54.3041C17.2378 54.1798 16.9988 53.8266 17.0179 53.4456C17.0244 53.3181 17.0937 52.1579 17.5177 50.7272C18.1088 48.7321 19.1157 47.2078 20.4295 46.3192L20.4363 46.3148C18.8454 45.4627 17.3675 44.4146 16.0371 43.195C15.6331 43.4614 15.215 43.7057 14.7846 43.9268C13.4066 44.6329 12.0746 44.991 10.8259 44.991C10.4636 44.991 10.1088 44.9597 9.7685 44.8978L9.76743 44.8975C9.70639 44.8864 9.64555 44.8743 9.58494 44.8611C8.03517 44.5232 6.53466 43.4815 5.24564 41.8481C4.3023 40.653 3.79439 39.5559 3.7732 39.5096C3.6138 39.1624 3.70451 38.7456 3.9937 38.4964C4.09033 38.4132 4.97659 37.6635 6.30587 36.9823C7.68393 36.2761 9.01581 35.9181 10.2647 35.9181C10.4615 35.9181 10.6557 35.9284 10.847 35.9468C10.8361 35.9219 10.8242 35.8975 10.8133 35.8727C10.1757 34.4077 9.7007 32.8773 9.39689 31.3087C9.04358 31.3306 8.68954 31.3384 8.3356 31.3322C6.2553 31.2927 4.51818 30.7272 3.31242 29.6969C2.10642 28.6664 1.27676 27.0388 0.913329 24.9901C0.647593 23.4919 0.718764 22.2842 0.721843 22.2333ZM61.3316 22.2333C61.3193 22.0468 61.2471 21.8693 61.1257 21.7272C61.0043 21.5852 60.8403 21.4861 60.658 21.4448C60.546 21.42 59.5241 21.2018 58.145 21.2018C58.0661 21.2018 57.986 21.2026 57.905 21.2041C55.8246 21.2435 54.0876 21.8091 52.8817 22.8395C52.7977 22.9116 52.7159 22.9862 52.6364 23.0633C52.2823 21.2836 51.7005 19.5368 50.892 17.8612C52.6099 16.93 53.8333 15.7124 54.4364 14.3258C55.0689 12.8713 55.1017 11.0449 54.5309 9.04391C54.1136 7.58082 53.5204 6.52604 53.4953 6.48164C53.4201 6.34903 53.3112 6.2387 53.1795 6.16186C53.0478 6.08503 52.8982 6.04443 52.7457 6.04419C52.6778 6.04425 52.6101 6.05232 52.5441 6.06823C52.4947 6.08007 51.3201 6.36487 49.9643 7.05776C48.1114 8.00465 46.7976 9.274 46.165 10.7285C45.5325 12.183 45.4997 14.0095 46.0705 16.0104C46.4772 17.4363 47.0493 18.4716 47.1014 18.5645C47.1123 18.5865 47.1214 18.609 47.1334 18.6307C49.8145 23.5337 50.0757 29.2806 47.8499 34.3981C45.4703 39.8694 40.5426 43.7883 34.6681 44.881C33.6643 45.0677 33.0021 46.0327 33.1887 47.0363C33.1893 47.0398 33.1904 47.043 33.1911 47.0464C33.241 47.5232 33.3642 48.3868 33.6591 49.3824C34.2501 51.3774 35.2571 52.9016 36.5707 53.7904C37.6463 54.5179 39.0719 54.9025 40.693 54.9025C41.0445 54.902 41.3959 54.8852 41.7458 54.852C43.2337 54.7126 44.334 54.3454 44.4544 54.3041C44.8157 54.1798 45.0546 53.8266 45.0356 53.4456C45.0291 53.3181 44.9598 52.1579 44.5358 50.7272C43.9448 48.7321 42.9379 47.2078 41.6241 46.3192L41.6172 46.3148C43.2082 45.4627 44.6861 44.4146 46.0165 43.195C46.4204 43.4614 46.8386 43.7057 47.269 43.9268C48.6469 44.6329 49.9789 44.991 51.2277 44.991C51.5899 44.991 51.9447 44.9597 52.2851 44.8978L52.2861 44.8975C52.3472 44.8864 52.408 44.8743 52.4686 44.8611C54.0184 44.5232 55.5189 43.4815 56.8079 41.8481C57.7513 40.653 58.2592 39.5559 58.2804 39.5096C58.4398 39.1624 58.3491 38.7456 58.0599 38.4964C57.9632 38.4132 57.077 37.6635 55.7477 36.9823C54.3696 36.2761 53.0378 35.9181 51.7889 35.9181C51.5921 35.9181 51.3979 35.9284 51.2066 35.9468C51.2175 35.9219 51.2293 35.8975 51.2402 35.8727C51.8779 34.4077 52.3529 32.8773 52.6567 31.3087C53.01 31.3306 53.364 31.3384 53.718 31.3322C55.7983 31.2927 57.5354 30.7272 58.7411 29.6969C59.9471 28.6664 60.7768 27.0388 61.1402 24.9901C61.4059 23.4919 61.3347 22.2842 61.3316 22.2333Z"
        fill="url(#paint1_linear_31897_76658)" />
    <defs>
        <linearGradient id="paint0_linear_31897_76658" x1="31.0228" y1="16.6692" x2="31.0228"
            y2="37.2712" gradientUnits="userSpaceOnUse">
            <stop stop-color="#EAFF0F" />
            <stop offset="1" stop-color="#BEFF56" />
        </linearGradient>
        <linearGradient id="paint1_linear_31897_76658" x1="31.0267" y1="6.04419" x2="31.0267"
            y2="54.9025" gradientUnits="userSpaceOnUse">
            <stop stop-color="#EAFF0F" />
            <stop offset="1" stop-color="#BEFF56" />
        </linearGradient>
    </defs>
</svg>